<?xml version="1.0" standalone="no"?>
<!DOCTYPE svg PUBLIC "-//W3C//DTD SVG 20010904//EN"
 "http://www.w3.org/TR/2001/REC-SVG-20010904/DTD/svg10.dtd">
<svg version="1.0" xmlns="http://www.w3.org/2000/svg"
 width="1948.000000pt" height="1948.000000pt" viewBox="0 0 1948.000000 1948.000000"
 preserveAspectRatio="xMidYMid meet">
<metadata>
Created by potrace 1.11, written by Peter Selinger 2001-2013
</metadata>
<g transform="translate(0.000000,1948.000000) scale(0.100000,-0.100000)"
fill="#000000" stroke="none">
<path d="M6223 15509 c16 -358 -144 -717 -423 -950 -225 -188 -494 -281 -790
-273 -63 2 -126 6 -140 9 -14 3 -41 8 -60 11 -59 10 -190 54 -270 91 -232 109
-422 292 -544 526 -25 47 -50 104 -57 127 -7 23 -18 44 -25 47 -14 5 -294
-128 -467 -223 -176 -97 -400 -238 -579 -364 l-47 -33 19 -26 c10 -14 27 -35
37 -46 10 -11 40 -54 65 -95 263 -423 239 -950 -61 -1345 -103 -135 -259 -264
-418 -344 -63 -31 -197 -80 -243 -87 -14 -3 -31 -7 -39 -10 -72 -25 -364 -25
-476 1 -148 33 -321 106 -416 175 l-41 30 -19 -24 c-11 -13 -19 -27 -19 -30 0
-3 -14 -29 -31 -58 -69 -117 -211 -409 -276 -568 -19 -47 -40 -98 -48 -115 -7
-16 -27 -70 -45 -120 -17 -49 -40 -112 -50 -140 -39 -103 -40 -100 35 -119 36
-9 106 -34 155 -55 437 -188 718 -620 712 -1095 -1 -78 -3 -109 -17 -201 -16
-115 -87 -293 -163 -415 -212 -335 -570 -538 -977 -554 -17 0 -29 -6 -28 -12
1 -7 5 -43 8 -80 3 -38 8 -80 10 -94 3 -14 7 -45 10 -70 3 -25 8 -56 11 -70 2
-14 7 -38 9 -55 36 -224 103 -508 177 -750 16 -55 31 -101 32 -102 1 -2 42 11
92 28 49 17 98 32 109 35 11 2 34 7 50 11 55 12 69 13 210 17 155 4 240 -7
376 -50 434 -136 746 -501 818 -959 19 -122 10 -301 -23 -450 -13 -62 -63
-191 -103 -266 -73 -139 -172 -261 -301 -369 l-53 -45 78 -84 c160 -173 429
-427 566 -536 21 -16 44 -35 50 -40 33 -28 195 -153 220 -168 27 -17 27 -17
47 15 69 115 167 225 280 312 147 114 350 203 530 232 14 2 39 6 56 9 37 6
230 7 259 2 11 -3 43 -8 70 -12 270 -38 558 -208 729 -429 129 -166 210 -343
241 -526 3 -19 8 -48 11 -65 7 -38 7 -241 1 -280 -15 -85 -21 -120 -22 -125
-1 -3 -5 -18 -9 -35 -4 -16 -11 -40 -16 -52 -7 -17 -5 -23 8 -27 26 -7 218
-43 302 -57 41 -6 82 -13 90 -14 8 -1 40 -6 70 -10 30 -3 66 -8 80 -10 14 -2
54 -6 90 -10 36 -3 81 -8 100 -10 81 -8 274 -18 387 -19 l123 -2 0 121 c0 66
2 131 5 145 3 14 7 39 9 55 14 100 53 217 108 329 179 362 540 612 943 652 87
9 235 4 305 -10 8 -1 33 -6 55 -11 112 -21 282 -91 387 -158 208 -134 376
-338 464 -562 15 -38 28 -71 29 -73 6 -7 344 159 506 249 127 70 282 166 438
273 74 50 139 94 143 97 5 3 -19 44 -54 90 -35 46 -83 121 -106 166 -51 98
-107 265 -117 348 -4 33 -9 69 -11 80 -6 34 -6 197 1 255 52 444 370 837 792
979 348 117 702 73 1026 -126 31 -20 59 -34 61 -32 32 39 316 601 316 625 0 3
7 22 16 42 9 21 20 46 25 57 25 58 90 232 119 317 l33 98 266 -5 c146 -3 376
-7 511 -10 135 -3 360 -7 500 -10 140 -3 365 -7 500 -10 243 -5 555 -11 1055
-20 441 -9 717 -14 1014 -20 157 -3 381 -8 496 -10 116 -2 363 -7 550 -11 478
-9 879 -10 952 -2 288 35 583 156 823 340 97 75 266 252 342 358 137 193 242
446 283 683 3 15 8 39 11 55 13 59 12 388 -2 476 -46 301 -170 582 -359 816
-223 277 -546 484 -886 569 -201 50 -230 52 -1039 66 -151 3 -383 7 -515 10
-132 3 -366 7 -520 10 -154 3 -383 7 -510 10 -126 3 -354 7 -505 10 -265 5
-418 8 -1060 20 -468 9 -674 13 -1001 20 -585 12 -674 14 -759 14 l-86 1 -33
115 c-28 98 -36 113 -50 106 -9 -4 -50 -20 -91 -34 -236 -81 -497 -83 -735 -5
-313 101 -565 321 -708 615 -75 155 -111 314 -111 493 -1 112 8 220 19 253 3
7 6 23 9 37 8 48 59 185 96 260 71 142 189 286 319 392 l45 36 -96 104 c-133
143 -310 313 -458 440 -161 137 -368 298 -383 298 -3 0 -26 -31 -52 -69 -164
-248 -450 -437 -750 -497 -121 -25 -335 -24 -455 1 -553 114 -948 595 -950
1155 -1 86 12 196 30 273 6 23 12 50 15 60 2 9 6 21 10 26 3 5 2 12 -2 14 -11
7 -198 45 -258 53 -27 3 -52 8 -55 9 -3 2 -33 7 -65 10 -33 4 -62 9 -65 10 -3
2 -37 6 -75 10 -39 3 -79 8 -90 10 -54 11 -241 24 -463 31 l-182 7 3 -84z
m278 -2093 c53 -4 105 -8 116 -10 11 -2 46 -7 79 -10 88 -10 217 -33 384 -71
361 -80 806 -272 1138 -491 513 -337 908 -766 1203 -1308 27 -49 49 -90 49
-92 0 -2 -56 -2 -124 -1 -120 3 -156 12 -156 39 0 6 -13 30 -30 55 -16 24 -30
46 -30 49 0 8 -121 186 -191 280 -326 436 -801 815 -1304 1039 -151 67 -410
161 -495 180 -8 2 -60 14 -115 28 -137 35 -327 66 -515 83 -146 14 -562 8
-655 -10 -11 -2 -45 -7 -76 -10 -31 -4 -65 -8 -75 -10 -11 -2 -39 -7 -64 -12
-25 -4 -47 -8 -50 -9 -16 -3 -78 -16 -97 -19 -56 -11 -263 -69 -313 -87 -30
-12 -62 -22 -71 -24 -31 -6 -267 -105 -356 -148 -496 -246 -905 -582 -1227
-1011 -221 -294 -404 -641 -512 -976 -36 -108 -98 -347 -108 -411 -3 -20 -7
-42 -10 -50 -3 -8 -7 -32 -10 -54 -3 -22 -10 -74 -16 -115 -32 -219 -34 -684
-5 -856 3 -16 7 -42 9 -59 4 -31 22 -138 31 -190 3 -16 19 -84 36 -150 96
-386 259 -752 482 -1085 50 -75 155 -216 179 -241 7 -8 31 -37 53 -64 64 -80
302 -316 400 -396 112 -92 299 -229 313 -229 6 0 12 -4 14 -8 11 -27 303 -186
495 -271 197 -86 539 -194 688 -217 22 -3 58 -9 80 -14 22 -5 63 -12 90 -16
28 -3 57 -7 65 -9 8 -2 51 -6 95 -10 44 -4 94 -9 110 -11 38 -5 415 -4 473 1
86 7 168 15 192 19 14 2 46 7 71 10 69 10 168 30 352 71 10 2 78 23 150 46
762 239 1401 721 1834 1384 40 60 76 115 81 120 5 6 33 10 63 9 30 -1 84 -3
122 -3 37 -1 67 -5 67 -11 0 -5 -32 -63 -71 -127 -220 -366 -502 -688 -839
-960 -240 -193 -562 -385 -860 -511 -152 -64 -453 -164 -568 -187 -9 -2 -62
-12 -117 -24 -106 -21 -134 -26 -205 -36 -25 -3 -56 -8 -70 -10 -33 -6 -137
-15 -220 -21 -81 -5 -405 -4 -444 1 -15 2 -67 7 -115 11 -110 9 -117 9 -171
18 -25 4 -57 9 -72 12 -60 9 -94 15 -108 19 -8 2 -31 7 -50 10 -81 14 -285 70
-421 116 -436 146 -854 382 -1196 675 -178 152 -488 488 -578 626 -5 8 -37 55
-71 104 -264 385 -488 926 -559 1354 -3 19 -10 60 -15 90 -31 176 -45 354 -45
580 0 150 8 309 20 400 12 99 17 131 25 180 21 123 36 197 60 292 12 46 23 92
26 104 7 38 86 269 126 369 222 561 603 1082 1063 1455 44 36 88 73 99 83 11
9 23 17 27 17 4 0 14 6 21 13 26 26 175 125 298 199 123 74 363 196 470 238
231 93 511 177 697 210 63 11 82 14 138 24 17 3 54 8 83 12 29 3 62 7 74 9 11
2 72 7 137 11 64 3 117 7 118 8 5 4 314 -2 404 -8z m-56 -461 c66 -4 122 -8
125 -10 3 -1 36 -6 73 -10 37 -3 78 -8 90 -11 12 -2 36 -7 52 -9 17 -3 37 -8
45 -10 8 -2 29 -7 45 -10 17 -3 43 -8 59 -11 52 -9 241 -63 333 -95 657 -228
1210 -654 1597 -1233 36 -55 66 -103 66 -106 0 -4 -66 -6 -147 -4 -82 1 -276
5 -432 8 l-284 6 -66 68 c-193 196 -379 334 -624 462 -232 121 -427 188 -717
245 -34 7 -83 13 -155 21 -33 3 -71 8 -85 10 -32 5 -325 5 -365 0 -16 -2 -61
-7 -98 -11 -37 -3 -78 -8 -90 -11 -12 -2 -42 -7 -67 -10 -25 -3 -48 -8 -51
-10 -3 -2 -21 -6 -40 -9 -149 -25 -409 -118 -591 -211 -409 -209 -738 -511
-984 -904 -44 -69 -164 -300 -164 -315 0 -3 -9 -25 -19 -48 -49 -108 -125
-370 -145 -497 -3 -19 -7 -44 -10 -55 -2 -11 -7 -49 -11 -85 -3 -36 -9 -78
-12 -95 -6 -40 -6 -345 2 -415 33 -328 102 -579 237 -860 289 -601 812 -1061
1444 -1269 83 -28 162 -52 175 -54 13 -3 67 -14 119 -25 96 -21 139 -27 285
-42 81 -8 376 -5 450 4 22 3 60 8 85 11 41 5 126 19 175 29 110 22 391 109
409 127 6 5 15 9 22 9 15 0 177 78 274 131 166 92 359 237 506 379 l70 69 210
-5 c115 -2 305 -6 423 -9 117 -2 216 -6 218 -9 3 -3 -17 -35 -43 -73 -475
-676 -1171 -1135 -1969 -1299 -78 -15 -116 -22 -175 -30 -25 -3 -52 -7 -60 -9
-71 -18 -494 -26 -660 -12 -121 10 -285 35 -410 62 -14 3 -37 7 -53 10 -15 3
-61 16 -102 29 -41 13 -75 22 -75 20 0 -2 -57 17 -127 42 -233 83 -410 166
-615 290 -87 53 -247 161 -258 174 -3 3 -14 13 -26 21 -58 39 -213 177 -314
279 -195 195 -389 453 -515 685 -45 82 -125 242 -125 249 0 3 -12 31 -26 63
-49 107 -143 388 -160 478 -2 11 -8 38 -13 60 -14 55 -38 189 -46 255 -4 30
-9 62 -10 70 -23 122 -23 574 -1 710 3 14 8 48 11 75 12 91 15 110 20 135 3
14 8 39 11 55 26 145 95 381 155 534 172 431 395 770 718 1091 318 315 666
544 1066 700 61 24 119 46 130 51 47 19 288 87 335 95 14 3 55 11 92 19 37 8
84 17 105 20 21 2 54 7 73 9 86 13 111 15 205 21 55 4 101 7 102 8 3 4 216 -1
328 -8z m65 -934 c80 -11 99 -14 161 -26 60 -11 224 -57 301 -84 183 -64 336
-140 493 -244 85 -57 255 -186 255 -194 0 -2 -84 -2 -187 0 l-188 4 -79 47
c-167 100 -407 198 -569 231 -10 2 -26 6 -35 9 -9 3 -37 8 -62 11 -24 4 -47 8
-50 10 -40 25 -578 25 -619 0 -4 -1 -28 -6 -56 -9 -27 -4 -84 -16 -125 -26
-470 -120 -856 -385 -1157 -792 -133 -181 -282 -521 -318 -728 -3 -19 -10 -53
-15 -75 -32 -150 -35 -536 -4 -688 2 -12 7 -35 10 -52 24 -138 90 -333 162
-485 31 -65 146 -263 164 -282 8 -7 21 -26 31 -41 20 -31 37 -52 111 -136 326
-374 812 -620 1316 -667 131 -13 455 -5 481 12 4 2 22 6 40 8 216 30 484 128
693 253 45 28 69 36 105 35 217 -2 311 -5 311 -11 -1 -6 -84 -72 -170 -135
-94 -68 -302 -183 -413 -227 -123 -50 -285 -100 -399 -123 -196 -40 -273 -48
-458 -48 -160 0 -260 8 -385 32 -27 5 -61 11 -75 14 -73 12 -280 73 -345 102
-16 7 -59 25 -95 40 -173 71 -410 219 -560 349 -45 39 -196 190 -238 237 -206
236 -385 577 -467 887 -29 111 -29 112 -40 181 -4 25 -9 54 -11 65 -19 90 -26
440 -12 565 42 364 182 742 378 1021 14 20 32 47 40 59 32 48 135 168 208 244
219 224 455 380 797 526 137 59 404 121 585 136 41 4 76 8 78 9 8 7 340 -4
412 -14z m1809 -1315 c202 -47 336 -113 453 -224 l46 -44 -33 -32 c-18 -17
-46 -44 -63 -60 l-31 -29 -57 51 c-224 200 -611 236 -897 84 -216 -115 -352
-305 -390 -545 -71 -444 188 -816 628 -902 65 -13 260 -14 310 -2 11 3 43 11
70 18 74 18 188 77 257 132 l61 49 60 -60 c70 -70 71 -65 -32 -142 -163 -121
-351 -181 -571 -181 -108 0 -139 3 -251 26 -235 49 -453 196 -580 390 -105
162 -151 313 -153 505 -1 139 4 196 28 287 66 252 235 462 472 584 158 81 293
109 499 104 83 -2 161 -6 174 -9z m1421 -30 c173 -4 322 -8 330 -11 8 -2 38
-6 65 -10 73 -9 213 -58 280 -99 119 -72 217 -192 256 -315 43 -136 36 -333
-16 -463 -57 -143 -185 -264 -336 -319 l-59 -22 63 -91 c35 -50 99 -143 142
-206 43 -63 114 -166 158 -229 43 -63 74 -117 69 -120 -6 -3 -52 -5 -104 -3
l-93 3 -145 212 c-79 117 -148 217 -152 222 -5 6 -20 28 -35 50 -14 22 -39 58
-54 80 l-27 40 -239 3 c-131 2 -280 4 -330 5 l-93 2 -1 -80 c0 -44 -2 -156 -4
-250 -2 -93 -4 -191 -4 -217 l-1 -46 -95 -1 c-70 -1 -95 2 -96 11 -2 33 -1
211 5 503 7 344 15 817 21 1142 1 111 5 205 8 210 3 5 43 8 89 7 46 -1 225 -5
398 -8z m2260 -73 c7 -16 68 -158 137 -318 136 -315 277 -642 298 -690 8 -16
57 -131 110 -255 53 -124 104 -243 114 -265 22 -48 141 -325 141 -328 0 -1
-50 0 -111 3 l-111 5 -57 135 c-32 74 -86 203 -120 285 -35 83 -69 164 -77
180 -13 29 -95 224 -324 765 -57 135 -107 249 -111 254 -4 5 -22 -22 -40 -60
-17 -38 -70 -150 -116 -249 -93 -197 -134 -285 -189 -402 -20 -43 -52 -112
-71 -153 -20 -41 -53 -113 -75 -160 -22 -47 -51 -110 -65 -140 -37 -77 -118
-250 -164 -347 -31 -68 -42 -83 -61 -84 -41 -2 -182 2 -185 5 -2 2 17 44 42
95 25 50 45 93 45 96 0 2 33 73 74 157 40 84 93 194 116 243 111 235 181 382
277 585 31 63 70 147 88 185 33 70 109 231 188 398 l41 87 97 0 c95 0 96 0
109 -27z m1269 1 c8 -7 688 -894 771 -1004 14 -18 59 -77 100 -131 91 -117
278 -363 295 -386 10 -13 13 16 14 143 2 87 4 245 6 349 2 105 7 375 10 600 4
226 9 412 11 414 8 8 179 -1 184 -10 4 -5 5 -60 4 -122 -1 -61 -5 -263 -8
-447 -15 -816 -18 -983 -21 -1110 -1 -74 -3 -145 -4 -157 -1 -22 -5 -23 -79
-23 l-79 0 -164 216 c-90 119 -181 237 -201 263 -20 25 -128 166 -240 312
-112 147 -213 280 -225 295 -12 16 -92 121 -178 234 -86 113 -160 209 -165
213 -4 5 -9 -47 -10 -115 -6 -329 -9 -503 -15 -853 -4 -209 -7 -417 -8 -462
l-2 -81 -90 3 c-49 2 -94 4 -98 4 -4 1 -5 126 -2 279 2 152 7 430 11 617 3
187 7 419 9 515 2 96 4 238 5 316 l2 141 79 -2 c43 0 83 -5 88 -11z m2202 -39
c2 -20 -4 -489 -14 -998 -2 -64 0 -116 4 -115 4 2 257 251 562 553 l554 550
89 -1 c49 -1 99 -3 110 -3 16 -1 -79 -103 -385 -412 -223 -226 -407 -414 -409
-418 -2 -6 281 -361 413 -516 18 -22 53 -65 76 -95 23 -30 45 -57 49 -60 3 -3
66 -79 139 -170 74 -91 141 -173 149 -182 14 -17 9 -18 -101 -16 l-115 2 -135
160 c-74 89 -210 251 -302 361 -92 110 -201 239 -241 287 l-72 86 -104 -99
c-56 -55 -145 -141 -195 -191 l-93 -91 -1 -76 c-3 -256 -7 -399 -12 -408 -6
-9 -174 -10 -183 0 -5 5 -4 287 1 567 2 80 6 312 10 515 4 204 8 444 10 535 2
91 4 184 4 207 l1 41 95 -1 c57 -1 95 -6 96 -12z m-9126 -96 c304 -94 506
-358 508 -664 1 -108 -5 -153 -33 -236 -97 -286 -351 -476 -649 -484 -279 -7
-528 142 -654 390 -66 133 -90 313 -60 460 42 203 187 392 370 484 57 28 171
64 233 74 66 9 219 -3 285 -24z m11390 -204 c158 -28 335 -145 429 -285 119
-175 151 -392 88 -585 -9 -27 -17 -52 -17 -55 -2 -12 -50 -99 -76 -136 -58
-85 -151 -165 -247 -214 -377 -191 -828 0 -958 405 -40 122 -39 294 2 413 97
286 366 477 659 467 44 -2 98 -6 120 -10z"/>
<path d="M9463 10512 c-21 -3 -23 -9 -24 -60 -1 -103 -10 -645 -12 -764 l-3
-118 65 -1 c36 0 176 -2 311 -3 264 -3 352 7 453 52 155 69 246 210 251 387 8
270 -134 438 -410 486 -32 5 -178 12 -324 15 -146 3 -269 6 -275 7 -5 2 -20 1
-32 -1z"/>
</g>
</svg>
